<?xml version="1.0" encoding="UTF-8"?>
<svg xmlns="http://www.w3.org/2000/svg" xmlns:xlink="http://www.w3.org/1999/xlink" width="95pt" height="95pt" viewBox="0 0 95 95" version="1.1">
<g id="surface1">
<path style=" stroke:none;fill-rule:nonzero;fill:rgb(0%,44.705882%,62.745098%);fill-opacity:1;" d="M 62.039062 81.316406 C 61.304688 80.773438 60.53125 80.507812 59.660156 80.507812 C 57.035156 80.507812 55.679688 82.949219 54.585938 84.910156 C 53.648438 86.59375 53.027344 87.707031 51.644531 87.707031 C 50.261719 87.707031 49.640625 86.59375 48.699219 84.910156 C 47.609375 82.949219 46.25 80.507812 43.625 80.507812 C 41 80.507812 39.644531 82.949219 38.550781 84.910156 C 37.613281 86.59375 36.992188 87.707031 35.609375 87.707031 C 34.222656 87.707031 33.601562 86.59375 32.664062 84.910156 C 31.574219 82.949219 30.214844 80.507812 27.589844 80.507812 C 24.964844 80.507812 23.605469 82.949219 22.515625 84.910156 C 21.574219 86.59375 20.957031 87.707031 19.570312 87.707031 C 18.1875 87.707031 17.566406 86.59375 16.625 84.910156 C 15.535156 82.949219 14.175781 80.507812 11.550781 80.507812 C 8.925781 80.507812 7.566406 82.949219 6.476562 84.910156 C 5.539062 86.59375 4.917969 87.707031 3.53125 87.707031 C 2.6875 87.707031 2 88.980469 2 90.550781 C 2 92.117188 2.6875 93.390625 3.53125 93.390625 C 6.15625 93.390625 7.515625 90.949219 8.605469 88.988281 C 9.546875 87.304688 10.167969 86.191406 11.550781 86.191406 C 12.9375 86.191406 13.554688 87.304688 14.496094 88.988281 C 15.585938 90.949219 16.945312 93.390625 19.570312 93.390625 C 22.195312 93.390625 23.554688 90.949219 24.644531 88.988281 C 25.585938 87.304688 26.203125 86.191406 27.589844 86.191406 C 28.972656 86.191406 29.59375 87.304688 30.53125 88.988281 C 31.625 90.949219 32.984375 93.390625 35.609375 93.390625 C 38.234375 93.390625 39.589844 90.949219 40.683594 88.988281 C 41.621094 87.304688 42.242188 86.191406 43.625 86.191406 C 45.011719 86.191406 45.628906 87.304688 46.570312 88.988281 C 47.660156 90.949219 49.019531 93.390625 51.644531 93.390625 C 54.269531 93.390625 55.628906 90.949219 56.71875 88.988281 C 57.65625 87.304688 58.277344 86.191406 59.660156 86.191406 C 60.132812 86.191406 60.535156 86.320312 60.898438 86.589844 C 61.683594 87.175781 62.574219 86.46875 62.890625 85.011719 C 63.203125 83.554688 62.824219 81.902344 62.039062 81.316406 Z M 62.039062 81.316406 "/>
<path style=" stroke:none;fill-rule:nonzero;fill:rgb(100%,100%,100%);fill-opacity:1;" d="M 62.039062 81.316406 L 62.40625 80.039062 Z M 54.585938 84.910156 L 55.238281 85.847656 Z M 48.699219 84.910156 L 48.050781 85.847656 Z M 38.550781 84.910156 L 39.203125 85.847656 Z M 32.664062 84.910156 L 33.316406 83.96875 Z M 22.515625 84.910156 L 21.863281 83.96875 Z M 16.625 84.910156 L 17.277344 83.96875 Z M 6.476562 84.910156 L 5.824219 83.96875 Z M 8.605469 88.988281 L 9.257812 89.929688 Z M 14.496094 88.988281 L 13.84375 89.929688 Z M 24.644531 88.988281 L 25.296875 89.929688 Z M 30.53125 88.988281 L 29.882812 89.929688 Z M 40.683594 88.988281 L 41.335938 89.929688 Z M 46.570312 88.988281 L 45.917969 89.929688 Z M 56.71875 88.988281 L 56.066406 88.050781 Z M 60.898438 86.589844 L 61.265625 85.3125 Z M 62.890625 85.011719 L 63.714844 85.472656 Z M 62.40625 80.039062 C 61.582031 79.4375 60.621094 79.105469 59.660156 79.097656 L 59.660156 81.917969 C 60.4375 81.910156 61.03125 82.109375 61.671875 82.597656 Z M 59.660156 79.097656 C 56.617188 79.097656 55.027344 82.003906 53.933594 83.96875 L 55.238281 85.847656 C 56.328125 83.890625 57.457031 81.917969 59.660156 81.917969 Z M 53.933594 83.96875 C 53.464844 84.8125 53.152344 85.390625 52.789062 85.777344 C 52.445312 86.171875 52.191406 86.320312 51.644531 86.300781 L 51.644531 89.117188 C 52.480469 89.097656 53.230469 88.6875 53.777344 88.105469 C 54.304688 87.511719 54.769531 86.691406 55.238281 85.847656 Z M 51.644531 86.300781 C 51.097656 86.320312 50.84375 86.171875 50.5 85.777344 C 50.136719 85.390625 49.820312 84.8125 49.351562 83.96875 L 48.050781 85.847656 C 48.519531 86.691406 48.984375 87.511719 49.511719 88.105469 C 50.058594 88.6875 50.808594 89.097656 51.644531 89.117188 Z M 49.351562 83.96875 C 48.257812 82.003906 46.667969 79.097656 43.625 79.097656 L 43.625 81.917969 C 45.832031 81.917969 46.960938 83.890625 48.050781 85.847656 Z M 43.625 79.097656 C 40.582031 79.097656 38.992188 82.003906 37.898438 83.96875 L 39.203125 85.847656 C 40.292969 83.890625 41.421875 81.917969 43.625 81.917969 Z M 37.898438 83.96875 C 37.429688 84.8125 37.117188 85.390625 36.753906 85.777344 C 36.410156 86.171875 36.15625 86.320312 35.609375 86.300781 L 35.609375 89.117188 C 36.445312 89.097656 37.195312 88.6875 37.738281 88.105469 C 38.269531 87.511719 38.734375 86.691406 39.203125 85.847656 Z M 35.609375 86.300781 C 35.058594 86.320312 34.808594 86.171875 34.460938 85.777344 C 34.101562 85.390625 33.785156 84.8125 33.316406 83.96875 L 32.011719 85.847656 C 32.480469 86.691406 32.945312 87.511719 33.476562 88.105469 C 34.023438 88.6875 34.769531 89.097656 35.609375 89.117188 Z M 33.316406 83.96875 C 32.222656 82.003906 30.632812 79.097656 27.589844 79.097656 L 27.589844 81.917969 C 29.796875 81.917969 30.921875 83.890625 32.011719 85.847656 Z M 27.589844 79.097656 C 24.546875 79.097656 22.957031 82.003906 21.863281 83.96875 L 23.164062 85.847656 C 24.257812 83.890625 25.382812 81.917969 27.589844 81.917969 Z M 21.863281 83.96875 C 21.394531 84.8125 21.078125 85.390625 20.714844 85.777344 C 20.371094 86.171875 20.117188 86.320312 19.570312 86.300781 L 19.570312 89.117188 C 20.40625 89.097656 21.15625 88.6875 21.703125 88.105469 C 22.230469 87.511719 22.695312 86.691406 23.164062 85.847656 Z M 19.570312 86.300781 C 19.023438 86.320312 18.769531 86.171875 18.425781 85.777344 C 18.0625 85.390625 17.746094 84.8125 17.277344 83.96875 L 15.976562 85.847656 C 16.445312 86.691406 16.910156 87.511719 17.4375 88.105469 C 17.984375 88.6875 18.734375 89.097656 19.570312 89.117188 Z M 17.277344 83.96875 C 16.183594 82.003906 14.59375 79.097656 11.550781 79.097656 L 11.550781 81.917969 C 13.757812 81.917969 14.886719 83.890625 15.976562 85.847656 Z M 11.550781 79.097656 C 8.507812 79.097656 6.917969 82.003906 5.824219 83.96875 L 7.128906 85.847656 C 8.21875 83.890625 9.34375 81.917969 11.550781 81.917969 Z M 5.824219 83.96875 C 5.355469 84.8125 5.039062 85.390625 4.679688 85.777344 C 4.332031 86.171875 4.078125 86.320312 3.53125 86.300781 L 3.53125 89.117188 C 4.367188 89.097656 5.117188 88.6875 5.664062 88.105469 C 6.191406 87.511719 6.65625 86.691406 7.128906 85.847656 Z M 3.53125 86.300781 C 2.089844 86.300781 1.125 88.394531 1.125 90.550781 L 2.875 90.550781 C 2.875 89.566406 3.28125 89.117188 3.53125 89.117188 Z M 1.125 90.550781 C 1.125 92.703125 2.089844 94.796875 3.53125 94.796875 L 3.53125 91.980469 C 3.28125 91.980469 2.875 91.535156 2.875 90.550781 Z M 3.53125 94.796875 C 6.574219 94.796875 8.164062 91.894531 9.257812 89.929688 L 7.957031 88.050781 C 6.867188 90.007812 5.738281 91.980469 3.53125 91.980469 Z M 9.257812 89.929688 C 9.726562 89.085938 10.042969 88.507812 10.40625 88.121094 C 10.75 87.726562 11.003906 87.578125 11.550781 87.597656 L 11.550781 84.78125 C 10.714844 84.800781 9.964844 85.210938 9.417969 85.792969 C 8.890625 86.386719 8.425781 87.207031 7.957031 88.050781 Z M 11.550781 87.597656 C 12.097656 87.578125 12.351562 87.726562 12.699219 88.121094 C 13.058594 88.507812 13.375 89.085938 13.84375 89.929688 L 15.148438 88.050781 C 14.675781 87.207031 14.210938 86.386719 13.683594 85.792969 C 13.136719 85.210938 12.386719 84.800781 11.550781 84.78125 Z M 13.84375 89.929688 C 14.9375 91.894531 16.527344 94.796875 19.570312 94.796875 L 19.570312 91.980469 C 17.363281 91.980469 16.238281 90.007812 15.148438 88.050781 Z M 19.570312 94.796875 C 22.613281 94.796875 24.203125 91.894531 25.296875 89.929688 L 23.996094 88.050781 C 22.90625 90.007812 21.777344 91.980469 19.570312 91.980469 Z M 25.296875 89.929688 C 25.765625 89.085938 26.082031 88.507812 26.445312 88.121094 C 26.789062 87.726562 27.042969 87.578125 27.589844 87.597656 L 27.589844 84.78125 C 26.753906 84.800781 26.003906 85.210938 25.457031 85.792969 C 24.929688 86.386719 24.464844 87.207031 23.996094 88.050781 Z M 27.589844 87.597656 C 28.136719 87.578125 28.390625 87.726562 28.734375 88.121094 C 29.097656 88.507812 29.410156 89.085938 29.882812 89.929688 L 31.183594 88.050781 C 30.714844 87.207031 30.25 86.386719 29.722656 85.792969 C 29.175781 85.210938 28.425781 84.800781 27.589844 84.78125 Z M 29.882812 89.929688 C 30.972656 91.894531 32.566406 94.796875 35.609375 94.796875 L 35.609375 91.980469 C 33.402344 91.980469 32.273438 90.007812 31.183594 88.050781 Z M 35.609375 94.796875 C 38.652344 94.796875 40.242188 91.894531 41.335938 89.929688 L 40.03125 88.050781 C 38.941406 90.007812 37.8125 91.980469 35.609375 91.980469 Z M 41.335938 89.929688 C 41.804688 89.085938 42.117188 88.507812 42.480469 88.121094 C 42.824219 87.726562 43.078125 87.578125 43.625 87.597656 L 43.625 84.78125 C 42.789062 84.800781 42.039062 85.210938 41.496094 85.792969 C 40.964844 86.386719 40.5 87.207031 40.03125 88.050781 Z M 43.625 87.597656 C 44.171875 87.578125 44.425781 87.726562 44.773438 88.121094 C 45.132812 88.507812 45.449219 89.085938 45.917969 89.929688 L 47.222656 88.050781 C 46.75 87.207031 46.285156 86.386719 45.757812 85.792969 C 45.210938 85.210938 44.464844 84.800781 43.625 84.78125 Z M 45.917969 89.929688 C 47.011719 91.894531 48.601562 94.796875 51.644531 94.796875 L 51.644531 91.980469 C 49.4375 91.980469 48.3125 90.007812 47.222656 88.050781 Z M 51.644531 94.796875 C 54.6875 94.796875 56.277344 91.894531 57.371094 89.929688 L 56.066406 88.050781 C 54.976562 90.007812 53.851562 91.980469 51.644531 91.980469 Z M 57.371094 89.929688 C 57.839844 89.085938 58.152344 88.507812 58.515625 88.121094 C 58.859375 87.726562 59.113281 87.578125 59.660156 87.597656 L 59.660156 84.78125 C 58.824219 84.800781 58.074219 85.210938 57.53125 85.792969 C 57 86.386719 56.535156 87.207031 56.066406 88.050781 Z M 59.660156 87.597656 C 60.042969 87.59375 60.265625 87.660156 60.53125 87.867188 L 61.265625 85.3125 C 60.808594 84.980469 60.21875 84.789062 59.660156 84.78125 Z M 60.53125 87.867188 C 61.871094 88.867188 63.265625 87.566406 63.714844 85.472656 L 62.0625 84.546875 C 61.886719 85.371094 61.492188 85.480469 61.265625 85.3125 Z M 63.714844 85.472656 C 64.152344 83.445312 63.664062 80.972656 62.40625 80.039062 L 61.671875 82.597656 C 61.984375 82.828125 62.253906 83.664062 62.0625 84.546875 Z M 63.714844 85.472656 "/>
<path style=" stroke:none;fill-rule:evenodd;fill:rgb(0%,44.705882%,62.745098%);fill-opacity:1;" d="M 91.246094 46.394531 C 91.238281 46.421875 91.230469 46.453125 91.21875 46.480469 C 91.019531 47.0625 86.640625 59.753906 80.402344 68.859375 C 80.628906 69.1875 80.839844 69.519531 81.042969 69.835938 C 81.988281 71.316406 82.613281 72.296875 84.007812 72.296875 C 85.40625 72.296875 86.03125 71.316406 86.976562 69.835938 C 88.078125 68.113281 89.445312 65.96875 92.089844 65.96875 C 92.945312 65.96875 93.636719 67.085938 93.636719 68.464844 C 93.636719 69.84375 92.945312 70.960938 92.089844 70.960938 C 90.695312 70.960938 90.070312 71.941406 89.125 73.421875 C 88.023438 75.144531 86.65625 77.289062 84.007812 77.289062 C 81.363281 77.289062 79.992188 75.144531 78.894531 73.421875 C 77.945312 71.941406 77.320312 70.960938 75.925781 70.960938 C 74.53125 70.960938 73.90625 71.941406 72.960938 73.421875 C 71.859375 75.144531 70.488281 77.289062 67.84375 77.289062 C 65.199219 77.289062 63.828125 75.144531 62.726562 73.421875 C 61.78125 71.941406 61.15625 70.960938 59.761719 70.960938 C 58.367188 70.960938 57.742188 71.941406 56.792969 73.421875 C 55.695312 75.144531 54.324219 77.289062 51.679688 77.289062 C 49.03125 77.289062 47.664062 75.144531 46.5625 73.421875 C 45.617188 71.941406 44.992188 70.960938 43.597656 70.960938 C 42.199219 70.960938 41.574219 71.941406 40.628906 73.421875 C 39.527344 75.144531 38.160156 77.289062 35.511719 77.289062 C 33.109375 77.289062 31.765625 75.53125 30.691406 73.878906 C 30.074219 72.929688 30.050781 71.351562 30.636719 70.351562 C 31.226562 69.351562 32.203125 69.3125 32.820312 70.265625 C 33.59375 71.453125 34.242188 72.296875 35.511719 72.296875 C 36.910156 72.296875 37.535156 71.316406 38.480469 69.835938 C 39.582031 68.113281 40.949219 65.96875 43.597656 65.96875 C 46.242188 65.96875 47.609375 68.113281 48.710938 69.835938 C 49.660156 71.316406 50.285156 72.296875 51.679688 72.296875 C 53.074219 72.296875 53.699219 71.316406 54.644531 69.835938 C 55.746094 68.113281 57.113281 65.96875 59.761719 65.96875 C 62.40625 65.96875 63.777344 68.113281 64.875 69.835938 C 65.824219 71.316406 66.449219 72.296875 67.84375 72.296875 C 69.238281 72.296875 69.863281 71.316406 70.808594 69.835938 C 71.910156 68.113281 73.28125 65.96875 75.925781 65.96875 C 76.523438 65.96875 77.054688 66.082031 77.535156 66.273438 C 82.742188 59.164062 86.839844 48.652344 88.105469 45.207031 C 79.847656 42.71875 61.300781 41.164062 22.375 52.125 C 21.53125 52.359375 20.734375 51.449219 20.585938 50.09375 C 20.441406 48.734375 21.003906 47.441406 21.84375 47.203125 C 26.585938 45.871094 31.675781 44.539062 36.902344 43.332031 C 36.035156 37.304688 34.832031 32.589844 34.167969 30.25 C 32.007812 30.914062 29.765625 31.695312 27.449219 32.597656 C 21.234375 35.023438 16.101562 37.683594 13.855469 38.902344 L 14.921875 49.230469 C 15.4375 49.070312 15.96875 48.914062 16.507812 48.753906 C 17.347656 48.5 18.152344 49.398438 18.304688 50.753906 C 18.460938 52.109375 17.90625 53.410156 17.066406 53.660156 C 11.261719 55.390625 6.773438 56.890625 4.507812 57.667969 L 6.644531 69.070312 C 7.671875 67.539062 9 65.96875 11.261719 65.96875 C 13.910156 65.96875 15.277344 68.113281 16.378906 69.835938 C 17.324219 71.316406 17.953125 72.296875 19.347656 72.296875 C 20.742188 72.296875 21.367188 71.316406 22.3125 69.835938 C 23.414062 68.113281 24.785156 65.96875 27.429688 65.96875 C 28.28125 65.96875 28.972656 67.085938 28.972656 68.464844 C 28.972656 69.84375 28.28125 70.960938 27.429688 70.960938 C 26.035156 70.960938 25.410156 71.941406 24.464844 73.421875 C 23.363281 75.144531 21.992188 77.289062 19.347656 77.289062 C 16.699219 77.289062 15.332031 75.144531 14.230469 73.421875 C 13.285156 71.941406 12.660156 70.960938 11.261719 70.960938 C 9.867188 70.960938 9.242188 71.941406 8.296875 73.421875 C 7.195312 75.144531 5.824219 77.289062 3.179688 77.289062 C 2.324219 77.289062 1.632812 76.171875 1.632812 74.792969 C 1.632812 73.414062 2.324219 72.296875 3.179688 72.296875 C 3.484375 72.296875 3.753906 72.246094 3.996094 72.15625 L 1.066406 56.523438 C 0.941406 55.859375 0.996094 55.136719 1.210938 54.539062 C 1.429688 53.9375 1.789062 53.511719 2.210938 53.363281 L 2.21875 53.359375 C 2.453125 53.273438 6.136719 51.960938 11.886719 50.164062 L 10.902344 40.632812 L 9.367188 41.566406 C 9.1875 41.671875 9.003906 41.726562 8.824219 41.726562 C 8.199219 41.726562 7.609375 41.105469 7.378906 40.105469 C 7.078125 38.816406 7.484375 37.375 8.28125 36.890625 L 11.574219 34.890625 L 11.582031 34.886719 L 11.585938 34.886719 L 11.59375 34.882812 L 11.597656 34.878906 C 12.660156 34.261719 37.792969 19.859375 54.804688 22.984375 C 55.101562 23.039062 55.378906 23.230469 55.605469 23.53125 L 67.019531 38.554688 C 76.199219 37.984375 84.539062 38.570312 90.796875 41.027344 L 90.796875 41.03125 C 91.53125 41.316406 92.246094 41.636719 92.917969 41.976562 C 93.730469 42.386719 94.183594 43.789062 93.929688 45.101562 C 93.722656 46.167969 93.113281 46.851562 92.457031 46.851562 C 92.304688 46.851562 92.148438 46.816406 91.992188 46.738281 C 91.753906 46.617188 91.503906 46.496094 91.25 46.382812 Z M 37.304688 29.355469 C 38.070312 32.207031 39.164062 36.859375 39.972656 42.640625 C 47.445312 41 55.117188 39.65625 62.414062 38.929688 L 54.011719 27.867188 C 49.492188 27.136719 43.824219 27.648438 37.304688 29.355469 Z M 37.304688 29.355469 "/>
<path style=" stroke:none;fill-rule:nonzero;fill:rgb(100%,100%,100%);fill-opacity:1;" d="M 91.21875 46.480469 L 90.671875 45.992188 L 90.671875 45.996094 Z M 91.246094 46.394531 L 90.691406 45.9375 L 90.6875 45.949219 Z M 80.402344 68.859375 L 79.980469 68.113281 L 79.46875 68.859375 L 79.984375 69.605469 Z M 81.042969 69.835938 L 81.484375 69.125 L 81.476562 69.113281 Z M 81.042969 69.835938 L 80.601562 70.546875 L 80.609375 70.558594 Z M 86.976562 69.835938 L 87.410156 70.558594 Z M 89.125 73.421875 L 88.6875 72.699219 Z M 78.894531 73.421875 L 79.328125 72.699219 Z M 72.960938 73.421875 L 72.523438 72.699219 L 72.519531 72.707031 Z M 72.960938 73.421875 L 73.394531 74.144531 L 73.402344 74.132812 Z M 62.726562 73.421875 L 62.285156 74.132812 L 62.292969 74.144531 Z M 62.726562 73.421875 L 63.167969 72.707031 L 63.164062 72.699219 Z M 56.792969 73.421875 L 56.359375 72.699219 L 56.351562 72.707031 Z M 56.792969 73.421875 L 57.230469 74.144531 L 57.234375 74.132812 Z M 46.5625 73.421875 L 47 72.699219 Z M 40.628906 73.421875 L 41.066406 74.144531 Z M 30.691406 73.878906 L 31.125 73.152344 Z M 30.636719 70.351562 L 31.089844 71.042969 Z M 32.820312 70.265625 L 32.390625 70.992188 Z M 38.480469 69.835938 L 38.914062 70.558594 Z M 48.710938 69.835938 L 49.152344 69.125 L 49.148438 69.113281 Z M 48.710938 69.835938 L 48.269531 70.546875 L 48.277344 70.558594 Z M 54.644531 69.835938 L 55.082031 70.558594 Z M 64.875 69.835938 L 65.316406 69.125 L 65.3125 69.113281 Z M 64.875 69.835938 L 64.433594 70.546875 L 64.441406 70.558594 Z M 70.808594 69.835938 L 71.246094 70.558594 L 71.25 70.546875 Z M 70.808594 69.835938 L 70.375 69.113281 L 70.367188 69.125 Z M 77.535156 66.273438 L 77.386719 67.25 L 77.695312 67.375 L 77.941406 67.042969 Z M 88.105469 45.207031 L 88.644531 45.71875 L 89.101562 44.480469 L 88.222656 44.214844 Z M 22.375 52.125 L 22.480469 53.113281 Z M 20.585938 50.09375 L 21.203125 49.921875 Z M 21.84375 47.203125 L 21.734375 46.214844 Z M 36.902344 43.332031 L 36.992188 44.328125 L 37.664062 44.171875 L 37.511719 43.105469 Z M 34.167969 30.25 L 34.734375 29.832031 L 34.53125 29.113281 L 34.050781 29.261719 Z M 27.449219 32.597656 L 27.304688 31.621094 Z M 13.855469 38.902344 L 13.65625 37.949219 L 13.152344 38.222656 L 13.238281 39.066406 Z M 14.921875 49.230469 L 14.304688 49.394531 L 14.410156 50.410156 L 15.039062 50.21875 Z M 16.507812 48.753906 L 16.621094 49.742188 Z M 18.304688 50.753906 L 17.691406 50.933594 Z M 17.066406 53.660156 L 16.953125 52.671875 Z M 4.507812 57.667969 L 4.378906 56.683594 L 3.714844 56.910156 L 3.910156 57.957031 Z M 6.644531 69.070312 L 6.046875 69.359375 L 6.335938 70.902344 L 7.070312 69.808594 Z M 16.378906 69.835938 L 15.945312 70.558594 Z M 22.3125 69.835938 L 21.878906 69.113281 Z M 24.464844 73.421875 L 24.898438 74.144531 Z M 14.230469 73.421875 L 14.667969 72.699219 Z M 8.296875 73.421875 L 8.730469 74.144531 Z M 3.996094 72.15625 L 4.136719 73.136719 L 4.789062 72.898438 L 4.59375 71.867188 Z M 1.066406 56.523438 L 0.46875 56.8125 Z M 1.210938 54.539062 L 0.671875 54.03125 Z M 2.210938 53.363281 L 2.34375 54.34375 Z M 2.21875 53.359375 L 2.085938 52.375 Z M 11.886719 50.164062 L 12.007812 51.152344 L 12.601562 50.964844 L 12.503906 50 Z M 10.902344 40.632812 L 11.519531 40.464844 L 11.394531 39.257812 L 10.683594 39.691406 Z M 9.367188 41.566406 L 9.585938 42.507812 Z M 7.378906 40.105469 L 7.964844 39.753906 Z M 8.28125 36.890625 L 8.058594 35.949219 Z M 11.574219 34.890625 L 11.390625 33.929688 L 11.371094 33.9375 L 11.355469 33.949219 Z M 11.585938 34.886719 L 11.773438 35.847656 L 11.800781 35.832031 L 11.824219 35.816406 Z M 11.597656 34.878906 L 11.386719 33.929688 L 11.371094 33.9375 L 11.359375 33.949219 Z M 54.804688 22.984375 L 54.734375 23.984375 Z M 55.605469 23.53125 L 55.210938 24.308594 Z M 67.019531 38.554688 L 66.621094 39.335938 L 66.804688 39.578125 L 67.042969 39.5625 Z M 90.796875 41.027344 L 90.996094 40.074219 L 90.96875 40.0625 L 90.945312 40.050781 Z M 90.796875 41.03125 L 90.601562 41.984375 L 90.625 42 L 90.652344 42.007812 Z M 92.917969 41.976562 L 93.105469 41.015625 Z M 93.929688 45.101562 L 94.527344 45.402344 Z M 91.992188 46.738281 L 91.804688 47.699219 L 91.808594 47.699219 Z M 91.25 46.382812 L 91.421875 45.414062 L 90.925781 45.1875 L 90.695312 45.925781 Z M 39.972656 42.640625 L 39.363281 42.859375 L 39.488281 43.761719 L 40.058594 43.636719 Z M 37.304688 29.355469 L 37.207031 28.363281 L 36.414062 28.570312 L 36.730469 29.753906 Z M 62.414062 38.929688 L 62.449219 39.933594 L 64.042969 39.777344 L 62.808594 38.152344 Z M 54.011719 27.867188 L 54.40625 27.089844 L 54.261719 26.898438 L 54.074219 26.867188 Z M 91.765625 46.972656 C 91.777344 46.929688 91.796875 46.878906 91.808594 46.839844 L 90.6875 45.949219 C 90.679688 45.96875 90.679688 45.976562 90.671875 45.992188 Z M 80.820312 69.605469 C 87.128906 60.378906 91.566406 47.546875 91.765625 46.96875 L 90.671875 45.996094 C 90.472656 46.574219 86.152344 59.128906 79.980469 68.113281 Z M 81.476562 69.113281 C 81.277344 68.796875 81.054688 68.453125 80.820312 68.113281 L 79.984375 69.605469 C 80.199219 69.921875 80.40625 70.242188 80.605469 70.558594 Z M 81.484375 69.125 L 80.601562 70.546875 Z M 84.007812 71.289062 C 83.402344 71.300781 83.058594 71.128906 82.675781 70.757812 C 82.289062 70.394531 81.953125 69.855469 81.480469 69.117188 L 80.609375 70.558594 C 81.082031 71.300781 81.527344 71.992188 82.039062 72.488281 C 82.554688 72.972656 83.21875 73.292969 84.007812 73.300781 Z M 86.539062 69.113281 C 86.066406 69.855469 85.730469 70.390625 85.339844 70.757812 C 84.960938 71.128906 84.617188 71.300781 84.007812 71.289062 L 84.007812 73.300781 C 84.796875 73.292969 85.464844 72.972656 85.980469 72.484375 C 86.488281 71.988281 86.9375 71.296875 87.410156 70.558594 Z M 92.089844 64.960938 C 89.179688 64.960938 87.65625 67.371094 86.539062 69.113281 L 87.410156 70.558594 C 88.496094 68.855469 89.710938 66.976562 92.089844 66.976562 Z M 94.261719 68.464844 C 94.261719 66.535156 93.292969 64.960938 92.089844 64.960938 L 92.089844 66.976562 C 92.597656 66.976562 93.011719 67.640625 93.011719 68.464844 Z M 92.089844 71.96875 C 93.292969 71.96875 94.261719 70.394531 94.261719 68.464844 L 93.011719 68.464844 C 93.011719 69.292969 92.597656 69.957031 92.089844 69.957031 Z M 89.558594 74.144531 C 90.035156 73.402344 90.371094 72.863281 90.757812 72.5 C 91.140625 72.128906 91.484375 71.957031 92.089844 71.96875 L 92.089844 69.957031 C 91.300781 69.964844 90.636719 70.285156 90.121094 70.769531 C 89.609375 71.265625 89.160156 71.960938 88.6875 72.699219 Z M 84.007812 78.292969 C 86.917969 78.292969 88.445312 75.886719 89.558594 74.144531 L 88.6875 72.699219 C 87.601562 74.402344 86.390625 76.28125 84.007812 76.28125 Z M 78.457031 74.144531 C 79.574219 75.886719 81.097656 78.292969 84.007812 78.292969 L 84.007812 76.28125 C 81.628906 76.28125 80.414062 74.402344 79.328125 72.699219 Z M 75.925781 71.96875 C 76.53125 71.957031 76.878906 72.128906 77.257812 72.5 C 77.648438 72.863281 77.984375 73.402344 78.457031 74.144531 L 79.328125 72.699219 C 78.855469 71.960938 78.40625 71.265625 77.898438 70.769531 C 77.378906 70.285156 76.714844 69.964844 75.925781 69.957031 Z M 73.394531 74.140625 C 73.867188 73.402344 74.207031 72.863281 74.59375 72.5 C 74.976562 72.128906 75.320312 71.957031 75.925781 71.96875 L 75.925781 69.957031 C 75.136719 69.964844 74.472656 70.285156 73.957031 70.769531 C 73.445312 71.265625 72.996094 71.957031 72.523438 72.699219 Z M 73.402344 74.132812 L 72.519531 72.707031 L 72.515625 72.710938 Z M 67.84375 78.292969 C 70.753906 78.292969 72.28125 75.886719 73.394531 74.144531 L 72.523438 72.699219 C 71.4375 74.402344 70.226562 76.28125 67.84375 76.28125 Z M 62.292969 74.144531 C 63.40625 75.886719 64.933594 78.292969 67.84375 78.292969 L 67.84375 76.28125 C 65.460938 76.28125 64.25 74.402344 63.164062 72.699219 Z M 62.285156 74.132812 L 63.167969 72.710938 L 63.167969 72.707031 Z M 59.761719 71.96875 C 60.367188 71.957031 60.710938 72.128906 61.09375 72.5 C 61.480469 72.863281 61.816406 73.402344 62.289062 74.140625 L 63.164062 72.699219 C 62.6875 71.957031 62.242188 71.265625 61.730469 70.769531 C 61.214844 70.285156 60.550781 69.964844 59.761719 69.957031 Z M 57.230469 74.140625 C 57.703125 73.402344 58.039062 72.863281 58.429688 72.5 C 58.808594 72.128906 59.152344 71.957031 59.761719 71.96875 L 59.761719 69.957031 C 58.972656 69.964844 58.308594 70.285156 57.789062 70.769531 C 57.28125 71.265625 56.832031 71.957031 56.359375 72.699219 Z M 57.234375 74.132812 L 57.238281 74.132812 L 56.351562 72.707031 L 56.351562 72.710938 Z M 51.679688 78.292969 C 54.589844 78.292969 56.117188 75.886719 57.230469 74.144531 L 56.359375 72.699219 C 55.273438 74.402344 54.058594 76.28125 51.679688 76.28125 Z M 46.128906 74.144531 C 47.242188 75.886719 48.769531 78.292969 51.679688 78.292969 L 51.679688 76.28125 C 49.296875 76.28125 48.085938 74.402344 47 72.699219 Z M 43.597656 71.96875 C 44.203125 71.957031 44.546875 72.128906 44.929688 72.5 C 45.316406 72.863281 45.65625 73.402344 46.128906 74.144531 L 47 72.699219 C 46.527344 71.960938 46.078125 71.265625 45.566406 70.769531 C 45.050781 70.285156 44.386719 69.964844 43.597656 69.957031 Z M 41.066406 74.144531 C 41.539062 73.402344 41.875 72.863281 42.261719 72.5 C 42.644531 72.128906 42.988281 71.957031 43.597656 71.96875 L 43.597656 69.957031 C 42.808594 69.964844 42.140625 70.285156 41.625 70.769531 C 41.113281 71.265625 40.667969 71.960938 40.191406 72.699219 Z M 35.511719 78.292969 C 38.421875 78.292969 39.949219 75.886719 41.066406 74.144531 L 40.191406 72.699219 C 39.105469 74.402344 37.894531 76.28125 35.511719 76.28125 Z M 30.261719 74.609375 C 31.375 76.324219 32.871094 78.292969 35.511719 78.292969 L 35.511719 76.28125 C 33.347656 76.28125 32.152344 74.734375 31.125 73.152344 Z M 30.183594 69.660156 C 29.359375 71.058594 29.394531 73.273438 30.261719 74.609375 L 31.125 73.152344 C 30.753906 72.585938 30.742188 71.640625 31.089844 71.042969 Z M 33.253906 69.535156 C 32.382812 68.203125 31.011719 68.257812 30.183594 69.660156 L 31.089844 71.042969 C 31.441406 70.449219 32.023438 70.425781 32.390625 70.992188 Z M 35.511719 71.289062 C 34.960938 71.296875 34.628906 71.148438 34.273438 70.839844 C 33.921875 70.542969 33.632812 70.117188 33.253906 69.535156 L 32.390625 70.992188 C 32.785156 71.597656 33.207031 72.191406 33.683594 72.613281 C 34.167969 73.019531 34.792969 73.292969 35.511719 73.300781 Z M 38.042969 69.113281 C 37.570312 69.855469 37.234375 70.394531 36.84375 70.757812 C 36.464844 71.128906 36.121094 71.300781 35.511719 71.289062 L 35.511719 73.300781 C 36.300781 73.292969 36.96875 72.972656 37.484375 72.488281 C 37.996094 71.992188 38.441406 71.296875 38.914062 70.558594 Z M 43.597656 64.964844 C 40.683594 64.964844 39.160156 67.371094 38.042969 69.113281 L 38.914062 70.558594 C 40.003906 68.855469 41.214844 66.976562 43.597656 66.976562 Z M 49.148438 69.113281 C 48.03125 67.371094 46.507812 64.964844 43.597656 64.964844 L 43.597656 66.976562 C 45.976562 66.976562 47.1875 68.855469 48.277344 70.558594 Z M 49.152344 69.125 L 48.269531 70.546875 Z M 51.679688 71.289062 C 51.070312 71.300781 50.726562 71.128906 50.347656 70.757812 C 49.957031 70.394531 49.621094 69.855469 49.148438 69.117188 L 48.277344 70.558594 C 48.75 71.300781 49.199219 71.992188 49.707031 72.488281 C 50.222656 72.972656 50.890625 73.292969 51.679688 73.300781 Z M 54.210938 69.113281 C 53.734375 69.855469 53.398438 70.394531 53.011719 70.757812 C 52.628906 71.128906 52.285156 71.300781 51.679688 71.289062 L 51.679688 73.300781 C 52.46875 73.292969 53.132812 72.972656 53.648438 72.488281 C 54.160156 71.992188 54.605469 71.296875 55.082031 70.558594 Z M 59.761719 64.964844 C 56.851562 64.964844 55.324219 67.371094 54.210938 69.113281 L 55.082031 70.558594 C 56.167969 68.855469 57.378906 66.976562 59.761719 66.976562 Z M 65.3125 69.113281 C 64.199219 67.371094 62.671875 64.964844 59.761719 64.964844 L 59.761719 66.976562 C 62.140625 66.976562 63.355469 68.855469 64.441406 70.558594 Z M 65.320312 69.125 L 65.316406 69.125 L 64.433594 70.546875 Z M 67.84375 71.289062 C 67.238281 71.300781 66.890625 71.128906 66.511719 70.757812 C 66.121094 70.394531 65.785156 69.855469 65.3125 69.117188 L 64.441406 70.558594 C 64.914062 71.300781 65.363281 71.992188 65.871094 72.488281 C 66.390625 72.972656 67.054688 73.292969 67.84375 73.300781 Z M 70.375 69.117188 C 69.902344 69.855469 69.5625 70.394531 69.175781 70.757812 C 68.792969 71.128906 68.449219 71.300781 67.84375 71.289062 L 67.84375 73.300781 C 68.632812 73.292969 69.296875 72.972656 69.8125 72.488281 C 70.324219 71.992188 70.773438 71.300781 71.246094 70.558594 Z M 70.367188 69.125 L 71.25 70.546875 Z M 75.925781 64.964844 C 73.015625 64.964844 71.488281 67.371094 70.375 69.113281 L 71.246094 70.558594 C 72.332031 68.855469 73.542969 66.976562 75.925781 66.976562 Z M 77.6875 65.296875 C 77.171875 65.09375 76.566406 64.964844 75.925781 64.964844 L 75.925781 66.976562 C 76.484375 66.972656 76.941406 67.074219 77.386719 67.25 Z M 87.570312 44.691406 C 86.304688 48.128906 82.269531 58.507812 77.132812 65.507812 L 77.941406 67.042969 C 83.214844 59.824219 87.371094 49.175781 88.644531 45.71875 Z M 22.480469 53.113281 C 61.375 42.164062 79.839844 43.738281 87.992188 46.195312 L 88.222656 44.214844 C 79.855469 41.695312 61.222656 40.164062 22.265625 51.132812 Z M 19.972656 50.265625 C 20.175781 52.167969 21.296875 53.445312 22.480469 53.113281 L 22.265625 51.132812 C 21.765625 51.269531 21.289062 50.734375 21.203125 49.921875 Z M 21.734375 46.214844 C 20.554688 46.546875 19.765625 48.363281 19.972656 50.265625 L 21.203125 49.921875 C 21.113281 49.105469 21.453125 48.335938 21.949219 48.195312 Z M 36.8125 42.335938 C 31.582031 43.542969 26.484375 44.875 21.734375 46.214844 L 21.949219 48.195312 C 26.691406 46.863281 31.769531 45.535156 36.992188 44.328125 Z M 33.597656 30.667969 C 34.257812 32.992188 35.441406 37.613281 36.292969 43.558594 L 37.511719 43.105469 C 36.628906 37 35.402344 32.191406 34.734375 29.832031 Z M 27.597656 33.578125 C 29.90625 32.675781 32.132812 31.898438 34.285156 31.238281 L 34.050781 29.261719 C 31.882812 29.925781 29.625 30.714844 27.304688 31.621094 Z M 14.054688 39.855469 C 16.296875 38.640625 21.40625 35.992188 27.597656 33.578125 L 27.304688 31.621094 C 21.066406 34.054688 15.90625 36.730469 13.65625 37.949219 Z M 15.539062 49.0625 L 14.472656 38.738281 L 13.238281 39.066406 L 14.304688 49.394531 Z M 16.394531 47.761719 C 15.851562 47.921875 15.324219 48.082031 14.804688 48.238281 L 15.039062 50.21875 C 15.554688 50.0625 16.082031 49.902344 16.621094 49.742188 Z M 18.921875 50.570312 C 18.703125 48.671875 17.574219 47.410156 16.394531 47.761719 L 16.621094 49.742188 C 17.117188 49.59375 17.597656 50.125 17.691406 50.933594 Z M 17.183594 54.652344 C 18.363281 54.300781 19.136719 52.46875 18.921875 50.570312 L 17.691406 50.933594 C 17.785156 51.75 17.453125 52.523438 16.953125 52.671875 Z M 4.636719 58.652344 C 6.902344 57.875 11.382812 56.378906 17.183594 54.652344 L 16.953125 52.671875 C 11.140625 54.40625 6.644531 55.90625 4.378906 56.683594 Z M 7.242188 68.777344 L 5.105469 57.375 L 3.910156 57.957031 L 6.046875 69.359375 Z M 11.261719 64.960938 C 8.777344 64.960938 7.304688 66.710938 6.21875 68.332031 L 7.070312 69.808594 C 8.039062 68.363281 9.222656 66.976562 11.261719 66.976562 Z M 16.816406 69.113281 C 15.699219 67.371094 14.171875 64.960938 11.261719 64.960938 L 11.261719 66.976562 C 13.644531 66.976562 14.855469 68.855469 15.945312 70.558594 Z M 19.347656 71.289062 C 18.738281 71.300781 18.394531 71.128906 18.015625 70.757812 C 17.625 70.390625 17.289062 69.855469 16.816406 69.113281 L 15.945312 70.558594 C 16.417969 71.296875 16.867188 71.988281 17.375 72.484375 C 17.890625 72.972656 18.558594 73.292969 19.347656 73.300781 Z M 21.878906 69.113281 C 21.40625 69.855469 21.066406 70.394531 20.679688 70.757812 C 20.296875 71.128906 19.953125 71.300781 19.347656 71.289062 L 19.347656 73.300781 C 20.136719 73.292969 20.800781 72.972656 21.320312 72.484375 C 21.828125 71.988281 22.277344 71.296875 22.75 70.558594 Z M 27.429688 64.960938 C 24.519531 64.960938 22.992188 67.371094 21.878906 69.113281 L 22.75 70.558594 C 23.835938 68.855469 25.046875 66.976562 27.429688 66.976562 Z M 29.597656 68.464844 C 29.597656 66.535156 28.628906 64.960938 27.429688 64.960938 L 27.429688 66.976562 C 27.9375 66.976562 28.347656 67.640625 28.347656 68.464844 Z M 27.429688 71.96875 C 28.628906 71.96875 29.597656 70.394531 29.597656 68.464844 L 28.347656 68.464844 C 28.347656 69.292969 27.933594 69.957031 27.429688 69.957031 Z M 24.898438 74.144531 C 25.371094 73.402344 25.710938 72.863281 26.097656 72.5 C 26.480469 72.128906 26.824219 71.957031 27.429688 71.96875 L 27.429688 69.957031 C 26.640625 69.964844 25.976562 70.285156 25.457031 70.769531 C 24.949219 71.265625 24.5 71.960938 24.027344 72.699219 Z M 19.347656 78.292969 C 22.257812 78.292969 23.785156 75.886719 24.898438 74.144531 L 24.027344 72.699219 C 22.941406 74.402344 21.730469 76.28125 19.347656 76.28125 Z M 13.796875 74.144531 C 14.910156 75.886719 16.4375 78.292969 19.347656 78.292969 L 19.347656 76.28125 C 16.964844 76.28125 15.753906 74.402344 14.667969 72.699219 Z M 11.261719 71.96875 C 11.871094 71.957031 12.214844 72.128906 12.597656 72.5 C 12.984375 72.863281 13.320312 73.402344 13.796875 74.144531 L 14.667969 72.699219 C 14.191406 71.960938 13.746094 71.265625 13.234375 70.769531 C 12.71875 70.285156 12.050781 69.964844 11.261719 69.957031 Z M 8.730469 74.144531 C 9.203125 73.402344 9.542969 72.863281 9.929688 72.5 C 10.3125 72.128906 10.65625 71.957031 11.261719 71.96875 L 11.261719 69.957031 C 10.472656 69.964844 9.808594 70.285156 9.292969 70.769531 C 8.78125 71.265625 8.332031 71.960938 7.859375 72.699219 Z M 3.179688 78.292969 C 6.089844 78.292969 7.617188 75.886719 8.730469 74.144531 L 7.859375 72.699219 C 6.773438 74.402344 5.5625 76.28125 3.179688 76.28125 Z M 1.007812 74.792969 C 1.007812 76.722656 1.980469 78.292969 3.179688 78.292969 L 3.179688 76.28125 C 2.671875 76.28125 2.257812 75.617188 2.257812 74.792969 Z M 3.179688 71.289062 C 1.980469 71.289062 1.007812 72.859375 1.007812 74.792969 L 2.257812 74.792969 C 2.257812 73.964844 2.671875 73.300781 3.179688 73.300781 Z M 3.859375 71.175781 C 3.648438 71.253906 3.449219 71.289062 3.179688 71.289062 L 3.179688 73.300781 C 3.523438 73.300781 3.859375 73.238281 4.136719 73.136719 Z M 0.46875 56.8125 L 3.398438 72.449219 L 4.59375 71.867188 L 1.664062 56.230469 Z M 0.671875 54.03125 C 0.367188 54.875 0.292969 55.882812 0.46875 56.8125 L 1.664062 56.230469 C 1.589844 55.832031 1.621094 55.402344 1.75 55.046875 Z M 2.074219 52.378906 C 1.484375 52.589844 0.976562 53.191406 0.671875 54.03125 L 1.75 55.046875 C 1.878906 54.6875 2.097656 54.433594 2.34375 54.34375 Z M 2.085938 52.375 L 2.074219 52.378906 L 2.34375 54.34375 L 2.355469 54.339844 Z M 11.769531 49.175781 C 6.011719 50.976562 2.320312 52.292969 2.085938 52.375 L 2.355469 54.339844 C 2.589844 54.257812 6.265625 52.949219 12.007812 51.152344 Z M 10.289062 40.796875 L 11.269531 50.328125 L 12.503906 50 L 11.519531 40.464844 Z M 9.585938 42.507812 L 11.125 41.574219 L 10.683594 39.691406 L 9.144531 40.621094 Z M 8.824219 42.730469 C 9.058594 42.726562 9.351562 42.644531 9.585938 42.507812 L 9.148438 40.621094 C 9.023438 40.703125 8.949219 40.722656 8.824219 40.71875 Z M 6.792969 40.457031 C 7.121094 41.863281 7.945312 42.730469 8.824219 42.730469 L 8.824219 40.71875 C 8.453125 40.71875 8.101562 40.351562 7.964844 39.753906 Z M 8.058594 35.949219 C 6.9375 36.632812 6.371094 38.652344 6.792969 40.457031 L 7.964844 39.753906 C 7.785156 38.980469 8.027344 38.121094 8.5 37.832031 Z M 11.355469 33.949219 L 8.058594 35.949219 L 8.5 37.832031 L 11.796875 35.832031 Z M 11.394531 33.925781 L 11.390625 33.929688 L 11.761719 35.851562 L 11.765625 35.847656 Z M 11.402344 33.925781 L 11.394531 33.925781 L 11.765625 35.847656 L 11.773438 35.847656 Z M 11.351562 33.953125 L 11.347656 33.953125 L 11.824219 35.816406 L 11.832031 35.8125 Z M 11.359375 33.949219 L 11.351562 33.953125 L 11.832031 35.8125 L 11.835938 35.808594 Z M 54.878906 21.984375 C 46.257812 20.402344 35.632812 23.257812 27.074219 26.550781 C 18.5 29.851562 11.917969 33.621094 11.386719 33.929688 L 11.808594 35.824219 C 12.339844 35.519531 18.855469 31.78125 27.363281 28.507812 C 35.894531 25.226562 46.34375 22.445312 54.734375 23.984375 Z M 56.003906 22.75 C 55.699219 22.367188 55.257812 22.066406 54.875 21.984375 L 54.734375 23.984375 C 54.941406 24.011719 55.054688 24.089844 55.210938 24.308594 Z M 67.414062 37.777344 L 56.003906 22.75 L 55.210938 24.308594 L 66.621094 39.335938 Z M 90.945312 40.050781 C 84.628906 37.574219 76.199219 36.976562 66.992188 37.550781 L 67.042969 39.5625 C 76.195312 38.992188 84.453125 39.566406 90.648438 42.007812 Z M 90.996094 40.074219 L 90.597656 41.984375 L 90.601562 41.984375 Z M 93.105469 41.015625 C 92.421875 40.671875 91.691406 40.34375 90.945312 40.050781 L 90.652344 42.007812 C 91.375 42.292969 92.070312 42.601562 92.730469 42.933594 Z M 94.527344 45.402344 C 94.882812 43.558594 94.25 41.59375 93.105469 41.015625 L 92.730469 42.933594 C 93.210938 43.179688 93.484375 44.015625 93.332031 44.804688 Z M 92.457031 47.859375 C 93.378906 47.859375 94.234375 46.898438 94.527344 45.402344 L 93.332031 44.804688 C 93.210938 45.441406 92.847656 45.847656 92.457031 45.847656 Z M 91.808594 47.699219 C 92.007812 47.796875 92.257812 47.855469 92.457031 47.859375 L 92.457031 45.847656 C 92.347656 45.851562 92.289062 45.835938 92.179688 45.777344 Z M 91.082031 47.351562 C 91.328125 47.464844 91.570312 47.578125 91.804688 47.699219 L 92.179688 45.777344 C 91.933594 45.652344 91.675781 45.53125 91.421875 45.414062 Z M 91.804688 46.851562 L 91.808594 46.839844 L 90.695312 45.925781 L 90.691406 45.9375 Z M 40.582031 42.417969 C 39.765625 36.570312 38.648438 31.828125 37.878906 28.957031 L 36.730469 29.753906 C 37.492188 32.585938 38.566406 37.148438 39.363281 42.859375 Z M 62.375 37.925781 C 55.066406 38.652344 47.371094 40 39.886719 41.640625 L 40.058594 43.636719 C 47.519531 42 55.171875 40.65625 62.449219 39.933594 Z M 53.617188 28.648438 L 62.015625 39.710938 L 62.808594 38.152344 L 54.40625 27.089844 Z M 37.40625 30.347656 C 43.890625 28.648438 49.476562 28.140625 53.949219 28.871094 L 54.074219 26.867188 C 49.503906 26.128906 43.757812 26.648438 37.207031 28.363281 Z M 37.40625 30.347656 "/>
<path style=" stroke:none;fill-rule:nonzero;fill:rgb(0%,44.705882%,62.745098%);fill-opacity:1;" d="M 78.53125 48.457031 L 74.523438 48.304688 C 74.511719 48.304688 74.503906 48.304688 74.496094 48.304688 C 73.683594 48.304688 73.015625 49.675781 73 51.394531 C 72.984375 53.128906 73.644531 54.5625 74.46875 54.59375 L 78.476562 54.746094 C 78.488281 54.746094 78.496094 54.746094 78.503906 54.746094 C 79.316406 54.746094 79.984375 53.375 80 51.65625 C 80.015625 49.921875 79.355469 48.488281 78.53125 48.457031 Z M 78.53125 48.457031 "/>
<path style=" stroke:none;fill-rule:nonzero;fill:rgb(100%,100%,100%);fill-opacity:1;" d="M 78.53125 48.457031 L 78.542969 47.652344 Z M 74.523438 48.304688 L 74.535156 47.5 L 74.523438 47.5 Z M 73 51.394531 L 72.5 51.382812 Z M 74.46875 54.59375 L 74.457031 55.398438 Z M 78.476562 54.746094 L 78.464844 55.550781 L 78.476562 55.550781 Z M 80 51.65625 L 80.5 51.667969 Z M 78.542969 47.652344 L 74.535156 47.5 L 74.511719 49.109375 L 78.519531 49.261719 Z M 74.523438 47.5 C 74.519531 47.5 74.511719 47.5 74.496094 47.5 L 74.496094 49.109375 C 74.5 49.109375 74.507812 49.109375 74.523438 49.109375 Z M 74.496094 47.5 C 73.296875 47.5 72.515625 49.433594 72.5 51.382812 L 73.5 51.40625 C 73.511719 49.921875 74.066406 49.109375 74.496094 49.109375 Z M 72.5 51.382812 C 72.484375 53.351562 73.242188 55.351562 74.457031 55.398438 L 74.480469 53.789062 C 74.042969 53.773438 73.488281 52.910156 73.5 51.40625 Z M 74.457031 55.398438 L 78.464844 55.550781 L 78.488281 53.941406 L 74.480469 53.789062 Z M 78.476562 55.550781 C 78.480469 55.550781 78.488281 55.550781 78.503906 55.550781 L 78.503906 53.941406 C 78.5 53.941406 78.492188 53.941406 78.476562 53.941406 Z M 78.503906 55.550781 C 79.703125 55.550781 80.484375 53.617188 80.5 51.667969 L 79.5 51.644531 C 79.488281 53.128906 78.933594 53.941406 78.503906 53.941406 Z M 80.5 51.667969 C 80.515625 49.699219 79.757812 47.699219 78.542969 47.652344 L 78.519531 49.261719 C 78.957031 49.277344 79.511719 50.140625 79.5 51.644531 Z M 80.5 51.667969 "/>
<path style=" stroke:none;fill-rule:nonzero;fill:rgb(0%,44.705882%,62.745098%);fill-opacity:1;" d="M 92.457031 78.898438 C 89.8125 78.898438 88.441406 81.335938 87.34375 83.296875 C 86.398438 84.984375 85.773438 86.097656 84.378906 86.097656 C 82.980469 86.097656 82.355469 84.984375 81.410156 83.296875 C 80.3125 81.339844 78.941406 78.898438 76.296875 78.898438 C 73.652344 78.898438 72.285156 81.335938 71.183594 83.296875 C 70.238281 84.984375 69.613281 86.097656 68.21875 86.097656 C 67.296875 86.097656 66.765625 85.585938 66.40625 85.140625 C 65.695312 84.265625 64.738281 84.609375 64.261719 85.914062 C 63.785156 87.214844 63.976562 88.980469 64.683594 89.855469 C 65.730469 91.148438 66.886719 91.78125 68.21875 91.78125 C 70.863281 91.78125 72.230469 89.339844 73.332031 87.378906 C 74.277344 85.695312 74.902344 84.578125 76.296875 84.578125 C 77.691406 84.578125 78.316406 85.695312 79.261719 87.378906 C 80.363281 89.339844 81.730469 91.78125 84.378906 91.78125 C 87.023438 91.78125 88.390625 89.339844 89.492188 87.378906 C 90.4375 85.695312 91.0625 84.578125 92.457031 84.578125 C 93.308594 84.578125 94 83.308594 94 81.738281 C 94 80.171875 93.308594 78.898438 92.457031 78.898438 Z M 92.457031 78.898438 "/>
<path style=" stroke:none;fill-rule:nonzero;fill:rgb(100%,100%,100%);fill-opacity:1;" d="M 87.34375 83.296875 L 87.992188 84.242188 Z M 81.410156 83.296875 L 80.761719 84.242188 Z M 71.183594 83.296875 L 70.535156 82.355469 Z M 66.40625 85.140625 L 66.9375 84.023438 Z M 64.261719 85.914062 L 63.507812 85.199219 Z M 64.683594 89.855469 L 64.148438 90.972656 Z M 73.332031 87.378906 L 73.980469 88.324219 Z M 79.261719 87.378906 L 78.613281 88.324219 Z M 89.492188 87.378906 L 88.839844 86.433594 Z M 94 81.738281 L 94.875 81.738281 Z M 92.457031 77.488281 C 89.394531 77.488281 87.796875 80.386719 86.691406 82.355469 L 87.992188 84.242188 C 89.089844 82.285156 90.226562 80.308594 92.457031 80.308594 Z M 86.695312 82.355469 C 86.21875 83.195312 85.902344 83.777344 85.539062 84.164062 C 85.1875 84.558594 84.929688 84.707031 84.378906 84.6875 L 84.378906 87.507812 C 85.21875 87.488281 85.96875 87.082031 86.519531 86.496094 C 87.050781 85.90625 87.519531 85.085938 87.992188 84.242188 Z M 84.378906 84.6875 C 83.824219 84.707031 83.566406 84.558594 83.214844 84.164062 C 82.851562 83.777344 82.535156 83.195312 82.058594 82.355469 L 80.761719 84.242188 C 81.234375 85.085938 81.703125 85.90625 82.234375 86.496094 C 82.785156 87.082031 83.535156 87.488281 84.378906 87.507812 Z M 82.058594 82.355469 C 80.957031 80.390625 79.359375 77.488281 76.296875 77.488281 L 76.296875 80.308594 C 78.527344 80.308594 79.664062 82.289062 80.761719 84.242188 Z M 76.296875 77.488281 C 73.238281 77.488281 71.636719 80.386719 70.535156 82.355469 L 71.832031 84.242188 C 72.929688 82.285156 74.066406 80.308594 76.296875 80.308594 Z M 70.535156 82.355469 C 70.0625 83.195312 69.742188 83.777344 69.378906 84.164062 C 69.03125 84.558594 68.769531 84.707031 68.21875 84.6875 L 68.21875 87.507812 C 69.058594 87.488281 69.808594 87.082031 70.359375 86.496094 C 70.890625 85.90625 71.359375 85.085938 71.832031 84.242188 Z M 68.21875 84.6875 C 67.542969 84.6875 67.191406 84.335938 66.9375 84.023438 L 65.871094 86.257812 C 66.339844 86.835938 67.054688 87.507812 68.21875 87.507812 Z M 66.9375 84.023438 C 65.773438 82.582031 64.226562 83.238281 63.507812 85.199219 L 65.015625 86.628906 C 65.25 85.984375 65.621094 85.945312 65.871094 86.257812 Z M 63.507812 85.199219 C 62.828125 87.066406 63.066406 89.632812 64.148438 90.972656 L 65.214844 88.738281 C 64.886719 88.328125 64.746094 87.363281 65.015625 86.628906 Z M 64.148438 90.972656 C 65.316406 92.394531 66.746094 93.167969 68.21875 93.1875 L 68.21875 90.371094 C 67.027344 90.390625 66.144531 89.90625 65.214844 88.738281 Z M 68.21875 93.1875 C 71.277344 93.1875 72.878906 90.289062 73.980469 88.324219 L 72.683594 86.433594 C 71.585938 88.390625 70.445312 90.371094 68.21875 90.371094 Z M 73.980469 88.324219 C 74.453125 87.480469 74.769531 86.898438 75.136719 86.515625 C 75.484375 86.117188 75.742188 85.96875 76.296875 85.988281 L 76.296875 83.171875 C 75.457031 83.191406 74.703125 83.597656 74.15625 84.179688 C 73.625 84.773438 73.15625 85.59375 72.683594 86.433594 Z M 76.296875 85.988281 C 76.851562 85.96875 77.109375 86.121094 77.457031 86.515625 C 77.824219 86.898438 78.140625 87.480469 78.613281 88.324219 L 79.914062 86.433594 C 79.4375 85.59375 78.972656 84.773438 78.4375 84.179688 C 77.890625 83.597656 77.136719 83.191406 76.296875 83.171875 Z M 78.613281 88.324219 C 79.714844 90.289062 81.316406 93.1875 84.378906 93.1875 L 84.378906 90.371094 C 82.148438 90.371094 81.011719 88.390625 79.914062 86.433594 Z M 84.378906 93.1875 C 87.4375 93.1875 89.039062 90.289062 90.140625 88.324219 L 88.839844 86.433594 C 87.742188 88.390625 86.605469 90.371094 84.378906 90.371094 Z M 90.140625 88.324219 C 90.613281 87.480469 90.929688 86.898438 91.296875 86.515625 C 91.644531 86.121094 91.902344 85.96875 92.457031 85.988281 L 92.457031 83.171875 C 91.613281 83.191406 90.863281 83.597656 90.316406 84.179688 C 89.78125 84.773438 89.3125 85.59375 88.839844 86.433594 Z M 92.457031 85.988281 C 93.898438 85.988281 94.875 83.902344 94.875 81.738281 L 93.125 81.738281 C 93.125 82.710938 92.71875 83.171875 92.457031 83.171875 Z M 94.875 81.738281 C 94.875 79.574219 93.898438 77.488281 92.457031 77.488281 L 92.457031 80.308594 C 92.71875 80.308594 93.125 80.765625 93.125 81.738281 Z M 94.875 81.738281 "/>
<path style=" stroke:none;fill-rule:nonzero;fill:rgb(0%,44.705882%,62.745098%);fill-opacity:1;" d="M 12 14.480469 L 11.410156 13.4375 L 9.988281 15.523438 L 11.898438 15.878906 Z M 35 27.371094 C 35.824219 26.894531 35.824219 26.894531 35.824219 26.894531 C 35.824219 26.890625 35.824219 26.890625 35.824219 26.890625 C 35.820312 26.890625 35.820312 26.890625 35.820312 26.886719 C 35.820312 26.882812 35.820312 26.878906 35.816406 26.875 C 35.816406 26.863281 35.8125 26.84375 35.804688 26.820312 C 35.796875 26.773438 35.78125 26.703125 35.757812 26.613281 C 35.71875 26.433594 35.65625 26.167969 35.578125 25.832031 C 35.417969 25.164062 35.1875 24.199219 34.902344 23.046875 C 34.328125 20.746094 33.511719 17.636719 32.578125 14.492188 C 31.644531 11.351562 30.5625 8.097656 29.46875 5.558594 C 28.917969 4.28125 28.324219 3.105469 27.757812 2.238281 C 27.183594 1.363281 26.53125 0.632812 25.816406 0.371094 L 25.425781 3.117188 C 25.699219 3.21875 26.078125 3.558594 26.554688 4.285156 C 27.039062 5.019531 27.519531 5.972656 28.03125 7.164062 C 29.066406 9.566406 30.082031 12.625 31 15.710938 C 31.917969 18.792969 32.707031 21.820312 33.277344 24.097656 C 33.558594 25.234375 33.785156 26.171875 33.941406 26.832031 C 34.019531 27.160156 34.078125 27.414062 34.117188 27.589844 C 34.136719 27.675781 34.152344 27.742188 34.164062 27.789062 C 34.167969 27.808594 34.171875 27.824219 34.171875 27.835938 C 34.175781 27.84375 34.175781 27.847656 34.175781 27.847656 C 34.175781 27.851562 34.175781 27.851562 34.175781 27.851562 C 34.175781 27.851562 34.175781 27.851562 35 27.371094 Z M 25.816406 0.371094 C 24.515625 -0.109375 22.929688 0.714844 21.453125 1.851562 C 19.941406 3.019531 18.296875 4.71875 16.824219 6.421875 C 15.347656 8.128906 13.988281 9.890625 13.011719 11.207031 C 12.523438 11.867188 12.121094 12.425781 11.847656 12.8125 C 11.707031 13.007812 11.597656 13.164062 11.527344 13.269531 C 11.488281 13.324219 11.460938 13.363281 11.441406 13.390625 C 11.433594 13.40625 11.425781 13.417969 11.417969 13.425781 C 11.417969 13.429688 11.414062 13.429688 11.414062 13.433594 C 11.414062 13.433594 11.414062 13.433594 11.410156 13.433594 C 11.410156 13.4375 11.410156 13.4375 11.410156 13.4375 C 11.410156 13.4375 11.410156 13.4375 12 14.480469 C 12.589844 15.519531 12.589844 15.519531 12.589844 15.519531 C 12.589844 15.519531 12.59375 15.515625 12.59375 15.511719 C 12.597656 15.507812 12.605469 15.496094 12.613281 15.484375 C 12.632812 15.457031 12.65625 15.421875 12.691406 15.371094 C 12.765625 15.269531 12.867188 15.121094 13 14.929688 C 13.269531 14.550781 13.65625 14.011719 14.136719 13.367188 C 15.097656 12.066406 16.40625 10.371094 17.84375 8.714844 C 19.28125 7.050781 20.796875 5.480469 22.210938 4.394531 C 23.65625 3.277344 24.757812 2.871094 25.425781 3.117188 Z M 12 14.480469 C 11.898438 15.878906 11.898438 15.878906 11.898438 15.878906 C 11.902344 15.878906 11.902344 15.878906 11.902344 15.878906 C 11.90625 15.878906 11.90625 15.878906 11.910156 15.878906 C 11.917969 15.882812 11.929688 15.882812 11.941406 15.886719 C 11.96875 15.890625 12.007812 15.898438 12.058594 15.90625 C 12.15625 15.921875 12.304688 15.949219 12.496094 15.976562 C 12.867188 16.035156 13.410156 16.113281 14.070312 16.191406 C 15.378906 16.347656 17.183594 16.503906 19.089844 16.5 C 20.988281 16.5 23.046875 16.332031 24.832031 15.855469 C 26.589844 15.382812 28.285156 14.554688 29.339844 13.03125 L 28.171875 10.929688 C 27.511719 11.886719 26.25 12.617188 24.542969 13.074219 C 22.859375 13.53125 20.945312 13.679688 19.085938 13.683594 C 17.230469 13.683594 15.492188 13.535156 14.199219 13.382812 C 13.554688 13.304688 13.03125 13.230469 12.664062 13.171875 C 12.480469 13.144531 12.339844 13.121094 12.242188 13.105469 C 12.195312 13.097656 12.160156 13.089844 12.132812 13.085938 C 12.121094 13.082031 12.113281 13.082031 12.109375 13.082031 C 12.105469 13.078125 12.101562 13.078125 12.101562 13.078125 C 12.101562 13.078125 12.101562 13.078125 12 14.480469 Z M 12 14.480469 "/>
</g>
</svg>
